<svg width="20" height="21" viewBox="0 0 20 21" fill="none" xmlns="http://www.w3.org/2000/svg">
<path d="M6 7.15853H14M6 11.3252H12M16 1.9502C16.7956 1.9502 17.5587 2.27944 18.1213 2.86549C18.6839 3.45154 19 4.24639 19 5.0752V13.4085C19 14.2373 18.6839 15.0322 18.1213 15.6182C17.5587 16.2043 16.7956 16.5335 16 16.5335H11L6 19.6585V16.5335H4C3.20435 16.5335 2.44129 16.2043 1.87868 15.6182C1.31607 15.0322 1 14.2373 1 13.4085V5.0752C1 4.24639 1.31607 3.45154 1.87868 2.86549C2.44129 2.27944 3.20435 1.9502 4 1.9502H16Z" stroke="black" stroke-width="2" stroke-linecap="round" stroke-linejoin="round"/>
</svg>
