<svg width="24" height="25" viewBox="0 0 24 25" fill="none" xmlns="http://www.w3.org/2000/svg">
<path fill-rule="evenodd" clip-rule="evenodd" d="M7.25062 5.46771C8.12062 4.17071 9.62362 2.80371 12.0006 2.80371C14.3776 2.80371 15.8806 4.17071 16.7506 5.46771C17.3252 6.33883 17.7432 7.30368 17.9856 8.31871L19.5206 16.2327C19.6048 16.667 19.5919 17.1145 19.4829 17.5432C19.3739 17.9719 19.1714 18.3712 18.8899 18.7124C18.6085 19.0537 18.2551 19.3285 17.8549 19.5172C17.4548 19.7058 17.018 19.8037 16.5756 19.8037H7.42562C6.98327 19.8037 6.5464 19.7058 6.1463 19.5172C5.74619 19.3285 5.39276 19.0537 5.11132 18.7124C4.82988 18.3712 4.62738 17.9719 4.51835 17.5432C4.40931 17.1145 4.39643 16.667 4.48062 16.2327L6.01562 8.31871C6.25793 7.30333 6.67589 6.33914 7.25062 5.46771Z" fill="black"/>
<path fill-rule="evenodd" clip-rule="evenodd" d="M8.51367 20.8037C8.76567 21.2837 9.15167 21.7867 9.73667 22.1707C10.3467 22.5707 11.1127 22.8037 12.0467 22.8037C12.9797 22.8037 13.7467 22.5707 14.3567 22.1707C14.9417 21.7867 15.3267 21.2847 15.5797 20.8037H8.51367Z" fill="black"/>
<path fill-rule="evenodd" clip-rule="evenodd" d="M17.2932 3.0965C17.1057 3.28402 17.0004 3.53833 17.0004 3.8035C17.0004 4.06866 17.1057 4.32297 17.2932 4.5105C18.1192 5.3365 18.5552 6.1465 19.0302 8.0465C19.0962 8.3021 19.2606 8.52125 19.4875 8.65614C19.7144 8.79104 19.9854 8.83074 20.2415 8.76659C20.4976 8.70245 20.7179 8.53965 20.8544 8.31371C20.9909 8.08777 21.0325 7.81702 20.9702 7.5605C20.4452 5.4605 19.8802 4.2705 18.7072 3.0965C18.5197 2.90903 18.2654 2.80371 18.0002 2.80371C17.7351 2.80371 17.4807 2.90903 17.2932 3.0965ZM6.70722 3.0965C6.89469 3.28402 7.00001 3.53833 7.00001 3.8035C7.00001 4.06866 6.89469 4.32297 6.70722 4.5105C5.88122 5.3365 5.44522 6.1465 4.97022 8.0465C4.90424 8.3021 4.73988 8.52125 4.51297 8.65614C4.28606 8.79104 4.01502 8.83074 3.75895 8.76659C3.50288 8.70245 3.28257 8.53965 3.14605 8.31371C3.00954 8.08777 2.9679 7.81702 3.03022 7.5605C3.55522 5.4605 4.12022 4.2705 5.29322 3.0965C5.48075 2.90903 5.73506 2.80371 6.00022 2.80371C6.26538 2.80371 6.51969 2.90903 6.70722 3.0965Z" fill="black"/>
<circle cx="5" cy="14.8037" r="4" fill="#FF0000"/>
</svg>
