<svg width="17" height="15" viewBox="0 0 17 15" fill="none" xmlns="http://www.w3.org/2000/svg">
<path d="M12.2323 9.83242H11.4909L11.2281 9.61083C11.8146 9.01499 12.2433 8.31315 12.4834 7.55552C12.7235 6.7979 12.7691 6.00323 12.6171 5.22838C12.176 2.94688 9.99872 1.12496 7.37099 0.845927C6.44717 0.743723 5.50885 0.827684 4.62785 1.09138C3.74684 1.35508 2.9465 1.79153 2.28805 2.36734C1.6296 2.94314 1.13051 3.64303 0.828962 4.41346C0.527414 5.18389 0.431403 6.00443 0.548275 6.8123C0.867356 9.11022 2.95077 11.0142 5.55973 11.3999C6.44579 11.5329 7.35452 11.493 8.22088 11.283C9.08724 11.073 9.88982 10.6982 10.5712 10.1853L10.8246 10.4151V11.0634L14.8131 14.5514C15.1979 14.8878 15.8266 14.8878 16.2114 14.5514C16.5962 14.2149 16.5962 13.665 16.2114 13.3285L12.2323 9.83242ZM6.60144 9.83242C4.26464 9.83242 2.3783 8.18284 2.3783 6.13934C2.3783 4.09584 4.26464 2.44626 6.60144 2.44626C8.93824 2.44626 10.8246 4.09584 10.8246 6.13934C10.8246 8.18284 8.93824 9.83242 6.60144 9.83242Z" fill="black" fill-opacity="0.5"/>
</svg>
