<svg width="25" height="25" viewBox="0 0 25 25" fill="none" xmlns="http://www.w3.org/2000/svg">
<path d="M23.2821 9.43913C23.1659 9.08036 22.9458 8.76414 22.6497 8.5305C22.3537 8.29687 21.995 8.15631 21.619 8.12663L16.3137 7.69819L14.2662 2.74726C14.1223 2.39734 13.8776 2.09809 13.5633 1.88749C13.249 1.67689 12.8792 1.56445 12.5009 1.56445C12.1225 1.56445 11.7527 1.67689 11.4384 1.88749C11.1241 2.09809 10.8794 2.39734 10.7355 2.74726L8.68992 7.69913L3.38461 8.12663C3.00794 8.1577 2.64886 8.2994 2.35249 8.53393C2.05611 8.76846 1.83567 9.08536 1.71886 9.4448C1.60205 9.80424 1.59409 10.1902 1.69597 10.5541C1.79785 10.9181 2.00504 11.2438 2.29149 11.4904L6.33961 14.9816L5.10211 20.2035C5.01185 20.5717 5.0332 20.9584 5.16345 21.3144C5.29369 21.6703 5.52693 21.9795 5.83347 22.2025C6.14001 22.4255 6.50598 22.5522 6.88477 22.5665C7.26357 22.5809 7.63806 22.4821 7.96055 22.2829L12.5009 19.4882L17.0412 22.2829C17.3636 22.4808 17.7374 22.5786 18.1154 22.5639C18.4935 22.5491 18.8586 22.4226 19.1647 22.2003C19.4707 21.9779 19.7039 21.6698 19.8347 21.3148C19.9656 20.9599 19.9881 20.5741 19.8996 20.2063L18.6621 14.9844L22.7102 11.4932C22.9984 11.246 23.2066 10.9188 23.3084 10.5531C23.4102 10.1874 23.4011 9.79964 23.2821 9.43913ZM16.6755 13.7235C16.5194 13.8581 16.4033 14.033 16.3398 14.229C16.2764 14.4251 16.2679 14.6349 16.3155 14.8354L17.524 19.9391L13.0905 17.2129C12.9132 17.1037 12.7091 17.0459 12.5009 17.0459C12.2926 17.0459 12.0885 17.1037 11.9112 17.2129L7.47774 19.9391L8.68617 14.8391C8.73377 14.6386 8.72537 14.4289 8.66188 14.2328C8.5984 14.0367 8.48227 13.8618 8.32617 13.7273L4.36336 10.3054L9.55711 9.88632C9.76379 9.86971 9.96187 9.79631 10.1295 9.67422C10.297 9.55212 10.4276 9.38609 10.5068 9.19444L12.5009 4.36632L14.4949 9.19444C14.5741 9.38609 14.7047 9.55212 14.8723 9.67422C15.0399 9.79631 15.2379 9.86971 15.4446 9.88632L20.6384 10.3054L16.6755 13.7235Z" fill="#F8E007"/>
</svg>
