<svg width="84" height="86" viewBox="0 0 84 86" fill="none" xmlns="http://www.w3.org/2000/svg">
<path d="M82.9388 39.391L77.6054 34.0576C77.4817 33.9338 77.3347 33.8355 77.1729 33.7685C77.0112 33.7015 76.8378 33.667 76.6627 33.667C76.4876 33.667 76.3143 33.7015 76.1525 33.7685C75.9907 33.8355 75.8438 33.9338 75.72 34.0576L70.3867 39.391C70.2628 39.5147 70.1646 39.6617 70.0976 39.8234C70.0306 39.9852 69.9961 40.1585 69.9961 40.3336V53.667C69.996 53.8421 70.0305 54.0155 70.0975 54.1773C70.1645 54.339 70.2627 54.486 70.3865 54.6099C70.5103 54.7337 70.6573 54.8319 70.8191 54.8989C70.9809 54.9659 71.1543 55.0003 71.3294 55.0003H81.9961C82.1712 55.0003 82.3446 54.9659 82.5064 54.8989C82.6682 54.8319 82.8152 54.7337 82.939 54.6099C83.0628 54.486 83.161 54.339 83.228 54.1773C83.295 54.0155 83.3295 53.8421 83.3294 53.667V40.3336C83.3294 40.1585 83.2949 39.9852 83.2279 39.8234C83.1609 39.6617 83.0626 39.5147 82.9388 39.391Z" fill="white"/>
<path d="M59.3294 23H19.3294C19.1543 23 18.9809 23.0344 18.8191 23.1014C18.6573 23.1684 18.5103 23.2666 18.3865 23.3904C18.2627 23.5142 18.1645 23.6612 18.0975 23.823C18.0305 23.9848 17.996 24.1582 17.9961 24.3333V44.3333C17.996 44.5871 18.0684 44.8356 18.2047 45.0497C18.3411 45.2637 18.5356 45.4344 18.7656 45.5417L38.7656 54.875C38.9422 54.9573 39.1346 55 39.3294 55C39.5242 55 39.7167 54.9573 39.8932 54.875L59.8932 45.5417C60.1232 45.4344 60.3178 45.2637 60.4541 45.0497C60.5904 44.8356 60.6628 44.5871 60.6628 44.3333V24.3333C60.6628 24.1582 60.6284 23.9848 60.5614 23.823C60.4944 23.6612 60.3962 23.5142 60.2723 23.3904C60.1485 23.2666 60.0015 23.1684 59.8397 23.1014C59.6779 23.0344 59.5045 23 59.3294 23Z" fill="white"/>
<path d="M59.3294 23H19.3294C19.1543 23 18.9809 23.0344 18.8191 23.1014C18.6573 23.1684 18.5103 23.2666 18.3865 23.3904C18.2627 23.5142 18.1645 23.6612 18.0975 23.823C18.0305 23.9848 17.996 24.1582 17.9961 24.3333V37.183L38.7656 46.875C38.9422 46.9574 39.1346 47 39.3294 47C39.5242 47 39.7167 46.9574 39.8932 46.875L60.6628 37.1829V24.3333C60.6628 24.1582 60.6284 23.9848 60.5614 23.823C60.4944 23.6612 60.3962 23.5142 60.2723 23.3904C60.1485 23.2666 60.0015 23.1684 59.8397 23.1014C59.6779 23.0344 59.5045 23 59.3294 23Z" fill="white"/>
<path d="M77.2253 17.7904L39.8919 0.457028C39.716 0.375962 39.5245 0.333984 39.3307 0.333984C39.137 0.333984 38.9455 0.375962 38.7695 0.457028L1.4362 17.7904C1.20557 17.8974 1.01035 18.0681 0.873551 18.2825C0.736748 18.4968 0.664062 18.7457 0.664062 19C0.664062 19.2543 0.736748 19.5032 0.873551 19.7175C1.01035 19.9319 1.20557 20.1026 1.4362 20.2096L38.7695 37.543C38.9454 37.6245 39.1369 37.6667 39.3307 37.6667C39.5246 37.6667 39.7161 37.6245 39.8919 37.543L77.2253 20.2096C77.4559 20.1026 77.6511 19.9319 77.7879 19.7175C77.9247 19.5032 77.9974 19.2543 77.9974 19C77.9974 18.7457 77.9247 18.4968 77.7879 18.2825C77.6511 18.0681 77.4559 17.8974 77.2253 17.7904Z" fill="white"/>
<path d="M76.6628 31.0003C76.4877 31.0004 76.3143 30.9659 76.1525 30.8989C75.9907 30.8319 75.8437 30.7337 75.7198 30.6099C75.596 30.4861 75.4978 30.3391 75.4308 30.1773C75.3638 30.0155 75.3294 29.8421 75.3294 29.667V20.3337H39.3294C38.9758 20.3337 38.6367 20.1932 38.3866 19.9431C38.1366 19.6931 37.9961 19.3539 37.9961 19.0003C37.9961 18.6467 38.1366 18.3076 38.3866 18.0575C38.6367 17.8075 38.9758 17.667 39.3294 17.667H76.6628C76.8379 17.6669 77.0113 17.7014 77.1731 17.7684C77.3349 17.8354 77.4819 17.9336 77.6057 18.0574C77.7295 18.1812 77.8277 18.3282 77.8947 18.49C77.9617 18.6518 77.9961 18.8252 77.9961 19.0003V29.667C77.9961 29.8421 77.9617 30.0155 77.8947 30.1773C77.8277 30.3391 77.7295 30.4861 77.6057 30.6099C77.4819 30.7337 77.3349 30.8319 77.1731 30.8989C77.0113 30.9659 76.8379 31.0004 76.6628 31.0003Z" fill="white"/>
<path d="M76.6654 38.9997C79.6109 38.9997 81.9987 36.6119 81.9987 33.6663C81.9987 30.7208 79.6109 28.333 76.6654 28.333C73.7198 28.333 71.332 30.7208 71.332 33.6663C71.332 36.6119 73.7198 38.9997 76.6654 38.9997Z" fill="white"/>
<path d="M65.6934 80.2861C63.9075 79.7992 61.9961 75.415 61.9961 69.6663C61.9961 63.9177 63.9075 59.5335 65.6934 59.0466C66.0215 58.957 66.303 58.7454 66.4803 58.4552C66.6576 58.1649 66.7173 57.8179 66.6472 57.4851C66.5771 57.1523 66.3825 56.8588 66.1032 56.6648C65.8239 56.4707 65.481 56.3907 65.1446 56.4411L39.3294 60.3187L13.5059 56.4398L12.8522 56.346C12.7895 56.3372 12.7261 56.3328 12.6628 56.333C8.86197 56.333 5.99609 62.0648 5.99609 69.6663C5.99609 77.2679 8.86197 82.9997 12.6628 82.9997C12.7261 82.9999 12.7895 82.9955 12.8522 82.9867L39.3294 79.014L65.1445 82.8917C65.4809 82.9421 65.8238 82.8621 66.1031 82.668C66.3824 82.4739 66.577 82.1805 66.6471 81.8477C66.7172 81.5148 66.6575 81.1678 66.4803 80.8776C66.303 80.5873 66.0215 80.3757 65.6934 80.2861Z" fill="white"/>
<path d="M44.6654 57.667H33.9987C33.2917 57.6678 32.6139 57.949 32.114 58.4489C31.6141 58.9489 31.3328 59.6267 31.332 60.3337V84.3337C31.3321 84.5516 31.3855 84.7662 31.4876 84.9586C31.5898 85.1511 31.7375 85.3157 31.918 85.4378C32.0984 85.56 32.3061 85.6361 32.5227 85.6595C32.7394 85.6829 32.9585 85.6528 33.1608 85.5719L39.332 83.1032L45.5033 85.5719C45.7056 85.6528 45.9247 85.6829 46.1413 85.6595C46.358 85.6361 46.5656 85.56 46.7461 85.4378C46.9265 85.3157 47.0743 85.1511 47.1764 84.9586C47.2786 84.7662 47.332 84.5516 47.332 84.3337V60.3337C47.3312 59.6267 47.05 58.9489 46.5501 58.4489C46.0502 57.949 45.3724 57.6678 44.6654 57.667Z" fill="white"/>
<path d="M65.9987 56.333C65.9353 56.3328 65.872 56.3372 65.8092 56.346L65.1556 56.4398C65.1011 56.4478 65.0472 56.4591 64.9941 56.4736C61.6601 57.3838 59.332 62.8083 59.332 69.6663C59.332 76.5244 61.6601 81.9489 64.9941 82.8591C65.0472 82.8736 65.1011 82.8849 65.1556 82.8929L65.8092 82.9867C65.872 82.9955 65.9353 82.9999 65.9987 82.9997C69.7995 82.9997 72.6654 77.2679 72.6654 69.6663C72.6654 62.0648 69.7995 56.333 65.9987 56.333Z" fill="white"/>
<path d="M63.332 68.333H59.3632C59.3434 68.771 59.332 69.2151 59.332 69.6663C59.332 76.5244 61.6601 81.9489 64.9941 82.859C65.0472 82.8736 65.1012 82.8849 65.1556 82.8929L65.8092 82.9866C65.872 82.9955 65.9353 82.9999 65.9987 82.9997C66.4545 82.998 66.9062 82.9139 67.332 82.7513V72.333C67.3309 71.2725 66.9091 70.2558 66.1592 69.5059C65.4093 68.756 64.3925 68.3342 63.332 68.333Z" fill="white"/>
</svg>
