<svg width="19" height="15" viewBox="0 0 19 15" fill="currentColor" xmlns="http://www.w3.org/2000/svg">
<path d="M5.46552 10H1.74138C1.05676 10 0.5 9.55152 0.5 9.00002V6.00002C0.5 5.44852 1.05676 5.00002 1.74138 5.00002H5.46552C6.15014 5.00002 6.7069 5.44852 6.7069 6.00002V9.00002C6.7069 9.55152 6.15014 10 5.46552 10ZM1.74138 6.00002V9.00002H5.46552V6.00002H1.74138ZM9.81034 14.5C9.58566 14.5 9.36303 14.4933 9.14248 14.48C6.44124 14.314 3.95352 13.114 2.48683 11.27L3.53269 10.73C4.15596 11.5118 4.99508 12.167 5.98454 12.6445C6.97401 13.1219 8.08706 13.4087 9.23683 13.4825C9.42593 13.4942 9.6171 13.5 9.81034 13.5V14.5ZM14.1552 14.5L12.8517 14C11.7966 13.6 11.0517 12.7 11.0517 11.75V8.50002H17.2586V11.75C17.2586 12.7 16.5759 13.6 15.4586 14L14.1552 14.5ZM12.2931 9.50002V11.75C12.2931 12.35 12.7276 12.85 13.3483 13.1L14.1552 13.4L14.9621 13.1C15.5828 12.85 16.0172 12.3 16.0172 11.75V9.50002H12.2931ZM16.8254 5.50002C17.1072 6.14102 17.2586 6.81052 17.2586 7.50002H18.5C18.5 6.81502 18.3765 6.14602 18.1375 5.50002H16.8254ZM16.6379 4.50002H14.7759C14.0912 4.50002 13.5345 4.05152 13.5345 3.50002V2.00002C13.5345 1.44852 14.0912 1.00002 14.7759 1.00002H16.6379C17.3226 1.00002 17.8793 1.44852 17.8793 2.00002V3.50002C17.8793 4.05152 17.3226 4.50002 16.6379 4.50002ZM14.7759 2.00002V3.50002H16.6379V2.00002H14.7759ZM12.2931 0.792015C11.4874 0.59844 10.6511 0.500082 9.81034 0.500015C8.35071 0.497548 6.91399 0.792368 5.63371 1.35708C4.35343 1.92179 3.27115 2.73805 2.48745 3.73002L3.53269 4.27002C4.43609 3.12637 5.79504 2.26391 7.38674 1.82404C8.97844 1.38416 10.7084 1.39297 12.2931 1.84902V0.792015Z" fill="currentColor"/>
</svg>
