<svg width="25" height="24" viewBox="0 0 25 24" fill="currentColor" xmlns="http://www.w3.org/2000/svg">
<g clip-path="url(#clip0_989_1044)">
<path d="M22.8144 0.0366565L12.8994 2.72241C12.6474 2.78991 12.1003 2.78916 11.8491 2.71866L2.18944 0.0419065C1.32729 -0.195468 0.492188 0.426281 0.492188 1.31391V19.5509C0.492188 20.3032 1.06254 21.0224 1.78854 21.2246L11.4485 23.9017C11.7069 23.9733 12.0396 24.013 12.3846 24.013C12.6212 24.013 12.9707 23.9947 13.2921 23.9069L23.2067 21.2212C23.9345 21.0243 24.5075 20.3065 24.5075 19.5513V1.31391C24.5079 0.427031 23.6728 -0.196968 22.8144 0.0366565H22.8144ZM11.75 22.4286L2.16579 19.7789C2.09341 19.759 1.99216 19.6266 1.99216 19.5513V1.55051L11.4485 4.16466C11.54 4.19016 11.6428 4.21003 11.75 4.22691V22.4286ZM23.0079 19.5513C23.0079 19.6252 22.8864 19.7541 22.8144 19.774L13.2501 22.3645V4.17888C13.2639 4.17551 13.2782 4.17363 13.2921 4.16988L23.0076 1.54188V19.5513H23.0079L23.0079 19.5513ZM15.5469 8.58551C15.6144 8.58551 15.6831 8.57691 15.7506 8.55776L20.9991 7.08063C21.3981 6.96776 21.6306 6.55411 21.5184 6.15549C21.4063 5.75686 20.9897 5.52549 20.5933 5.63611L15.3448 7.11326C14.9458 7.22613 14.7133 7.63976 14.8254 8.03838C14.9184 8.36951 15.2195 8.58551 15.5469 8.58551ZM15.547 13.0855C15.6145 13.0855 15.6831 13.0769 15.7506 13.0578L20.9991 11.5806C21.3981 11.4678 21.6306 11.0541 21.5185 10.6555C21.4064 10.2569 20.9897 10.0255 20.5934 10.1361L15.3449 11.6133C14.9459 11.7261 14.7134 12.1398 14.8255 12.538C14.9185 12.8691 15.2196 13.0855 15.547 13.0855ZM15.547 17.5855C15.6145 17.5855 15.6832 17.5769 15.7507 17.5578L20.9992 16.0806C21.3982 15.9678 21.6307 15.5541 21.5185 15.1555C21.4064 14.7569 20.9898 14.5255 20.5934 14.6361L15.3449 16.1133C14.9459 16.2261 14.7134 16.6398 14.8255 17.0384C14.9185 17.3692 15.2196 17.5855 15.547 17.5855ZM9.74918 7.11326L4.50073 5.63611C4.10435 5.52549 3.68773 5.75686 3.57558 6.15549C3.46343 6.55411 3.69558 6.96773 4.09495 7.08063L9.34348 8.55776C9.40974 8.57636 9.47826 8.5857 9.54708 8.58551C9.87445 8.58551 10.1756 8.36953 10.2686 8.03841C10.3807 7.64013 10.1486 7.22613 9.74918 7.11326ZM9.74923 11.6132L4.50077 10.1361C4.1044 10.0255 3.68775 10.2568 3.57562 10.6555C3.4635 11.0541 3.69563 11.4677 4.095 11.5806L9.3435 13.0577C9.40977 13.0763 9.47829 13.0857 9.54712 13.0855C9.8745 13.0855 10.1756 12.8695 10.2686 12.5384C10.3807 12.1401 10.1486 11.7261 9.74923 11.6132ZM9.74927 16.1132L4.50082 14.6361C4.10445 14.5254 3.6878 14.7568 3.57567 15.1554C3.46355 15.5541 3.69567 15.9677 4.09505 16.0806L9.34355 17.5577C9.40981 17.5763 9.47834 17.5857 9.54717 17.5855C9.87455 17.5855 10.1756 17.3695 10.2686 17.0384C10.3808 16.6397 10.1486 16.2261 9.74927 16.1132Z" fill="currentColor"/>
</g>
<defs>
<clipPath id="clip0_989_1044">
<rect width="24" height="24" fill="currentColor" transform="translate(0.5)"/>
</clipPath>
</defs>
</svg>
