<svg width="19" height="19" viewBox="0 0 19 19" fill="currentColor" xmlns="http://www.w3.org/2000/svg">
<g clip-path="url(#clip0_968_2983)">
<path d="M9.72441 1.6247H5.89941C4.93528 1.6247 4.27941 1.6247 3.77316 1.66745C3.28041 1.70683 3.02728 1.77995 2.85178 1.86995C2.42844 2.08566 2.08424 2.42986 1.86853 2.8532C1.77853 3.0287 1.70541 3.2807 1.66603 3.77458C1.62441 4.2797 1.62328 4.9322 1.62328 5.8997V11.9747C1.62328 12.9388 1.62441 13.5947 1.66603 14.101C1.70653 14.5937 1.77966 14.8468 1.86853 15.0223C2.08453 15.4453 2.42878 15.7896 2.85178 16.0056C3.02728 16.0956 3.28041 16.1687 3.77316 16.2081C4.05441 16.2306 4.38066 16.2418 4.78003 16.2463C4.92628 16.6513 5.14903 17.0361 5.45053 17.3713C3.85303 17.3691 3.00928 17.341 2.34553 17.0035C1.7111 16.68 1.19525 16.1641 0.871781 15.5297C0.503906 14.8063 0.503906 13.8647 0.503906 11.9747V5.8997C0.503906 4.0097 0.503906 3.0647 0.871781 2.3447C1.1965 1.71119 1.71201 1.19567 2.34553 0.870953C3.06778 0.501953 4.01053 0.501953 5.90053 0.501953H9.72553C11.6155 0.501953 12.5605 0.501953 13.2805 0.869828C13.914 1.19455 14.4296 1.71006 14.7543 2.34358C15.0243 2.87345 15.0963 3.52483 15.1154 4.58233C14.9805 4.58025 14.8457 4.58626 14.7115 4.60033C14.4971 4.33759 14.2454 4.10754 13.9645 3.91745L13.9544 3.78245C13.9139 3.2897 13.8419 3.03658 13.7519 2.85995C13.536 2.43703 13.1918 2.09325 12.7687 1.87783C12.5932 1.78783 12.3412 1.7147 11.8473 1.67533C11.341 1.6337 10.6885 1.63258 9.72103 1.63258L9.72441 1.6247Z" fill="currentColor"/>
<path d="M9.57934 3.875H3.31309C3.16391 3.875 3.02084 3.93426 2.91535 4.03975C2.80986 4.14524 2.75059 4.28832 2.75059 4.4375C2.75059 4.58668 2.80986 4.72976 2.91535 4.83525C3.02084 4.94074 3.16391 5 3.31309 5H6.76684C7.38524 4.66289 8.09121 4.52091 8.79184 4.59275C9.01909 4.31488 9.28797 4.07187 9.59059 3.875H9.57934ZM3.31309 7.25H4.78684C4.65472 7.61056 4.58509 7.99102 4.58097 8.375H3.32097C3.17178 8.375 3.02871 8.31574 2.92322 8.21025C2.81773 8.10476 2.75847 7.96168 2.75847 7.8125C2.75847 7.66332 2.81773 7.52024 2.92322 7.41475C3.02871 7.30926 3.17178 7.25 3.32097 7.25H3.31309ZM3.41434 10.625H3.30859C3.15941 10.625 3.01634 10.6843 2.91085 10.7898C2.80536 10.8952 2.74609 11.0383 2.74609 11.1875C2.74609 11.3367 2.80536 11.4798 2.91085 11.5852C3.01634 11.6907 3.15941 11.75 3.30859 11.75V11.4823C3.30859 11.186 3.34384 10.9002 3.41434 10.625Z" fill="currentColor"/>
<path fill-rule="evenodd" clip-rule="evenodd" d="M11.75 14C12.9875 14 14 12.9931 14 11.75C14 10.5125 12.9931 9.5 11.75 9.5C10.5125 9.5 9.5 10.5069 9.5 11.75C9.5 12.9875 10.5069 14 11.75 14ZM11.75 12.875C12.0484 12.875 12.3345 12.7565 12.5455 12.5455C12.7565 12.3345 12.875 12.0484 12.875 11.75C12.875 11.4516 12.7565 11.1655 12.5455 10.9545C12.3345 10.7435 12.0484 10.625 11.75 10.625C11.4516 10.625 11.1655 10.7435 10.9545 10.9545C10.7435 11.1655 10.625 11.4516 10.625 11.75C10.625 12.0484 10.7435 12.3345 10.9545 12.5455C11.1655 12.7565 11.4516 12.875 11.75 12.875Z" fill="currentColor"/>
<path fill-rule="evenodd" clip-rule="evenodd" d="M11.9758 5.00008H11.4426C10.5538 5.00008 9.81134 5.64695 9.67634 6.49633C9.59648 6.52714 9.51734 6.55977 9.43897 6.5942C9.09383 6.34812 8.67251 6.23261 8.25012 6.26825C7.82774 6.3039 7.43174 6.48839 7.13272 6.78883L6.75359 7.16795C6.45396 7.46744 6.27004 7.86334 6.23441 8.28548C6.19879 8.70761 6.31377 9.12874 6.55897 9.4742C6.52447 9.55295 6.49184 9.63208 6.46109 9.71158C6.04342 9.78218 5.66415 9.99818 5.39034 10.3214C5.11653 10.6446 4.96582 11.0542 4.96484 11.4778V12.0111C4.96484 12.9032 5.61397 13.6423 6.46109 13.7886C6.49109 13.8666 6.52297 13.9438 6.55672 14.0203C6.30953 14.367 6.19321 14.79 6.22843 15.2143C6.26365 15.6386 6.44813 16.0367 6.74909 16.3378L7.12034 16.7091C7.75259 17.3413 8.74034 17.4066 9.44909 16.8981C9.52259 16.9318 9.59684 16.963 9.67184 16.9915C9.74122 17.4127 9.95807 17.7956 10.2837 18.0717C10.6093 18.3479 11.0224 18.4993 11.4493 18.499H11.9646C12.8646 18.499 13.6071 17.842 13.7533 16.9802C13.8268 16.951 13.8996 16.9206 13.9716 16.8891C14.6781 17.3998 15.6703 17.3368 16.3116 16.7012L16.6727 16.3401C17.3083 15.7045 17.3713 14.7088 16.8606 14.0001C16.8925 13.928 16.9229 13.8552 16.9517 13.7818C17.376 13.7124 17.7617 13.4943 18.0399 13.1666C18.3182 12.8389 18.4708 12.423 18.4705 11.9931V11.4778C18.4705 10.5812 17.8168 9.83533 16.963 9.70033C16.9338 9.62467 16.9031 9.54965 16.8707 9.47533C17.377 8.7722 17.314 7.78783 16.6795 7.14658L16.3105 6.77758C16.0093 6.47661 15.6113 6.29213 15.187 6.25691C14.7627 6.22169 14.3396 6.33801 13.993 6.5852C13.9164 6.55123 13.8392 6.51897 13.7612 6.48845C13.6903 6.06886 13.4727 5.68811 13.1471 5.41406C12.8216 5.14002 12.4093 4.99052 11.9837 4.9922L11.9758 5.00008ZM10.7721 6.80008C10.7721 6.42995 11.0713 6.1307 11.4415 6.1307H11.9747C12.346 6.1307 12.6475 6.4322 12.6475 6.80345C12.6475 7.1207 12.8713 7.38958 13.1717 7.49308C13.3487 7.55383 13.5205 7.62545 13.687 7.70795C13.9727 7.84858 14.3237 7.81708 14.5487 7.59208C14.6752 7.46601 14.8466 7.39523 15.0252 7.39523C15.2038 7.39523 15.3751 7.46601 15.5016 7.59208L15.8717 7.9622C15.9987 8.08939 16.07 8.26175 16.07 8.44145C16.07 8.62116 15.9987 8.79352 15.8717 8.9207C15.6456 9.14683 15.613 9.49783 15.7525 9.7847C15.8312 9.94745 15.9002 10.1151 15.9595 10.2876C16.0641 10.5913 16.3352 10.8186 16.6558 10.8186C17.0305 10.8186 17.3342 11.1223 17.3342 11.497V12.0122C17.3342 12.193 17.2624 12.3664 17.1345 12.4943C17.0067 12.6221 16.8333 12.694 16.6525 12.694C16.3307 12.694 16.0585 12.9212 15.9527 13.2238C15.8942 13.3933 15.826 13.558 15.748 13.7177C15.6073 14.0068 15.6388 14.3612 15.8672 14.5885C15.9307 14.6517 15.981 14.7268 16.0153 14.8095C16.0497 14.8923 16.0674 14.9809 16.0674 15.0705C16.0674 15.1601 16.0497 15.2488 16.0153 15.3315C15.981 15.4142 15.9307 15.4893 15.8672 15.5526L15.5061 15.9137C15.4429 15.9771 15.3677 16.0275 15.285 16.0618C15.2023 16.0962 15.1136 16.1138 15.024 16.1138C14.9345 16.1138 14.8458 16.0962 14.7631 16.0618C14.6803 16.0275 14.6052 15.9771 14.542 15.9137C14.3147 15.6865 13.9603 15.6538 13.6712 15.7945C13.5115 15.8725 13.3468 15.9407 13.1773 15.9992C12.8736 16.105 12.6463 16.3772 12.6463 16.699C12.6463 16.8798 12.5745 17.0532 12.4467 17.181C12.3188 17.3089 12.1454 17.3807 11.9646 17.3807H11.4493C11.2694 17.3807 11.0969 17.3092 10.9697 17.182C10.8424 17.0548 10.771 16.8822 10.771 16.7023C10.771 16.3817 10.5437 16.1095 10.24 16.006C10.0683 15.9472 9.90039 15.878 9.73709 15.799C9.45022 15.6595 9.09922 15.6921 8.87309 15.9171C8.74591 16.044 8.57355 16.1153 8.39384 16.1153C8.21414 16.1153 8.04178 16.044 7.91459 15.9171L7.54447 15.547C7.41841 15.4204 7.34762 15.2491 7.34762 15.0705C7.34762 14.8919 7.41841 14.7206 7.54447 14.5941C7.76947 14.3691 7.80097 14.0181 7.66034 13.7323C7.57812 13.5652 7.50636 13.3931 7.44547 13.2171C7.34197 12.9167 7.07309 12.6928 6.75584 12.6928C6.5776 12.6922 6.40683 12.6212 6.28079 12.4951C6.15476 12.3691 6.08369 12.1983 6.08309 12.0201V11.4868C6.08309 11.1167 6.38234 10.8175 6.75247 10.8175C7.06972 10.8175 7.33747 10.5936 7.43984 10.2932C7.50112 10.1141 7.57364 9.93896 7.65697 9.76895C7.79647 9.48545 7.76497 9.13783 7.54109 8.91395C7.41565 8.78825 7.3452 8.61791 7.3452 8.44033C7.3452 8.26274 7.41565 8.0924 7.54109 7.9667L7.92022 7.58758C8.04592 7.46213 8.21626 7.39168 8.39384 7.39168C8.57143 7.39168 8.74177 7.46213 8.86747 7.58758C9.09134 7.81145 9.43897 7.84295 9.72247 7.70345C9.89122 7.62095 10.066 7.54858 10.2467 7.48633C10.5471 7.38508 10.771 7.1162 10.771 6.79895L10.7721 6.80008Z" fill="currentColor"/>
</g>
<defs>
<clipPath id="clip0_968_2983">
<rect width="18" height="18" fill="currentColor" transform="translate(0.5 0.5)"/>
</clipPath>
</defs>
</svg>
