<svg width="23" height="19" viewBox="0 0 23 19" fill="currentColor" xmlns="http://www.w3.org/2000/svg">
<path d="M2 3.5L7.5 1.5L13 3.5L10.5 5V6.5C10.5 6.5 9.833 6 7.5 6C5.167 6 4.5 6.5 4.5 6.5V5L2 3.5ZM2 3.5V7.5" stroke="currentColor" stroke-width="1.5" stroke-linecap="round" stroke-linejoin="round"/>
<path d="M10.5 6V6.889C10.5 8.607 9.157 10 7.5 10C5.843 10 4.5 8.607 4.5 6.889V6M14.818 8.53C14.818 8.53 15.303 8.177 17 8.177C18.697 8.177 19.182 8.529 19.182 8.529M14.818 8.53V7.5L13 6.5L17 5L21 6.5L19.182 7.5V8.529M14.818 8.53V8.818C14.818 9.3967 15.0479 9.9517 15.4571 10.3609C15.8663 10.7701 16.4213 11 17 11C17.5787 11 18.1337 10.7701 18.5429 10.3609C18.9521 9.9517 19.182 9.3967 19.182 8.818V8.529M15.5 17.5H19.205C19.978 17.5 20.592 17.124 21.144 16.598C22.274 15.522 20.419 14.662 19.712 14.241C19.0832 13.8699 18.3851 13.6316 17.6606 13.541C16.9362 13.4504 16.2008 13.5092 15.5 13.714M3.885 13.426C2.942 13.953 0.468999 15.028 1.975 16.373C2.711 17.03 3.53 17.5 4.561 17.5H10.439C11.469 17.5 12.289 17.03 13.025 16.373C14.531 15.028 12.058 13.953 11.115 13.426C8.903 12.191 6.097 12.191 3.885 13.426Z" stroke="currentColor" stroke-width="1.5" stroke-linecap="round" stroke-linejoin="round"/>
</svg>
