<svg width="21" height="17" viewBox="0 0 21 17" fill="currentColor" xmlns="http://www.w3.org/2000/svg">
<path d="M18.5488 12.5C19.0663 12.5 19.5626 12.3314 19.9285 12.0314C20.2944 11.7313 20.5 11.3243 20.5 10.9V2.1C20.5 1.67565 20.2944 1.26869 19.9285 0.968629C19.5626 0.668571 19.0663 0.5 18.5488 0.5H8.26585C8.60732 0.988 8.79268 1.54 8.79268 2.1H18.5488V10.9H9.76829V12.5M13.6707 4.5V6.1H7.81707V16.5H5.86585V11.7H3.91463V16.5H1.96341V10.1H0.5V6.1C0.5 5.67565 0.705574 5.26869 1.0715 4.96863C1.43742 4.66857 1.93372 4.5 2.45122 4.5H13.6707ZM6.84146 2.1C6.84146 2.52435 6.63589 2.93131 6.26996 3.23137C5.90404 3.53143 5.40774 3.7 4.89024 3.7C4.37275 3.7 3.87645 3.53143 3.51052 3.23137C3.1446 2.93131 2.93902 2.52435 2.93902 2.1C2.93902 1.67565 3.1446 1.26869 3.51052 0.968629C3.87645 0.668571 4.37275 0.5 4.89024 0.5C5.40774 0.5 5.90404 0.668571 6.26996 0.968629C6.63589 1.26869 6.84146 1.67565 6.84146 2.1Z" fill="currentColor"/>
</svg>
